<?xml version="1.0" encoding="utf-8"?><svg viewBox="0 0 800 800" xmlns="http://www.w3.org/2000/svg" xmlns:xlink="http://www.w3.org/1999/xlink"><style>:root>svg{display:none}:root>svg:target{display:block}</style><svg viewBox="0 0 20 20" id="angle-right" xmlns="http://www.w3.org/2000/svg"><path d="M11.732 9.36a1 1 0 1 1 1.536 1.28l-5 6a1 1 0 1 1-1.536-1.28l5-6Z"/><path d="M6.732 4.64a1 1 0 0 1 1.536-1.28l5 6a1 1 0 1 1-1.536 1.28l-5-6Z"/></svg><svg viewBox="0 0 24 24" id="choice-close" xmlns="http://www.w3.org/2000/svg"><path clip-rule="evenodd" d="M19.207 6.207a1 1 0 0 0-1.414-1.414L12 10.586 6.207 4.793a1 1 0 0 0-1.414 1.414L10.586 12l-5.793 5.793a1 1 0 1 0 1.414 1.414L12 13.414l5.793 5.793a1 1 0 0 0 1.414-1.414L13.414 12l5.793-5.793z"/></svg><svg viewBox="0 0 12 21" id="down-arrow" xmlns="http://www.w3.org/2000/svg"><path d="M.09 14.632a.995.995 0 0 1 .922-.618h3.986V1.011a.998.998 0 0 1 1.993 0v13.003h3.987a1.002 1.002 0 0 1 .705 1.708l-4.984 5.003a.994.994 0 0 1-1.409 0L.307 15.722a1.002 1.002 0 0 1-.216-1.09zm3.327 1.383 2.578 2.588 2.577-2.588z"/></svg><svg viewBox="0 0 24 24" id="filter" xmlns="http://www.w3.org/2000/svg"><path d="M20.17 3.91a.76.76 0 0 0-.67-.41h-15a.76.76 0 0 0-.67.41.73.73 0 0 0 .07.78L9.25 12v7.75a.76.76 0 0 0 .75.75h4a.76.76 0 0 0 .75-.75V12l5.35-7.31a.73.73 0 0 0 .07-.78Z"/></svg><svg viewBox="0 0 117 22" id="logo" xmlns="http://www.w3.org/2000/svg"><path d="M1 1h17L8 18h9v4H0L10 6H1zm32 21c-6.075 0-11-4.925-11-11 0-.666.07-1.315.183-1.949l5.726 5.09c1.057 1.71 2.933 2.859 5.09 2.859a6 6 0 1 0 0-12c-2.243 0-4.176 1.246-5.205 3.07l-3.822-3.345A10.98 10.98 0 0 1 33 0c6.075 0 11 4.925 11 11s-4.925 11-11 11zm17 0V12l5 3v7zm0-22 14 11V0h5v22L50 6zm41 4H81v5h9v4h-9v5h10v4H76V0h15zm26 18h-6l-5-6.875L101 22h-6l8-11-8-11h6l5 6.875L111 0h6l-8 11z"/></svg><svg viewBox="0 0 12 2" id="minus" xmlns="http://www.w3.org/2000/svg"><path d="M0 0h12v2H0z"/></svg><svg viewBox="0 0 24 24" id="next-arrow" xmlns="http://www.w3.org/2000/svg"><path clip-rule="evenodd" d="M12.293 4.293a1 1 0 0 1 1.414 0l7 7a1 1 0 0 1 0 1.414l-7 7a1 1 0 0 1-1.414-1.414L17.586 13H4a1 1 0 1 1 0-2h13.586l-5.293-5.293a1 1 0 0 1 0-1.414Z"/></svg><svg viewBox="0 0 12 12" id="plus" xmlns="http://www.w3.org/2000/svg"><path d="M12 7H7v5H5V7H0V5h5V0h2v5h5z"/></svg><svg viewBox="0 0 24 24" id="prev-arrow" xmlns="http://www.w3.org/2000/svg"><path clip-rule="evenodd" d="M11.707 4.293a1 1 0 0 1 0 1.414L6.414 11H20a1 1 0 1 1 0 2H6.414l5.293 5.293a1 1 0 0 1-1.414 1.414l-7-7a1 1 0 0 1 0-1.414l7-7a1 1 0 0 1 1.414 0Z"/></svg><svg viewBox="0 0 12 21" id="to-top" xmlns="http://www.w3.org/2000/svg"><path fill="#375973" d="M11.91 6.367a.996.996 0 0 1-.922.618H7.002v13.004a.998.998 0 1 1-1.993 0V6.985H1.022a1.002 1.002 0 0 1-.705-1.708L5.302.275a.993.993 0 0 1 1.409 0l4.983 5.002c.285.286.37.716.216 1.09zM8.581 4.984 6.005 2.396 3.428 4.984z"/></svg></svg>